<svg width="40" height="38" viewBox="0 0 40 38" fill="none" xmlns="http://www.w3.org/2000/svg">
<g clip-path="url(#clip0_63_6181)">
<path d="M19.9997 6.87008L18.2072 5.02758C13.9997 0.702576 6.28474 2.19508 3.49974 7.63258C2.19224 10.1901 1.89724 13.8826 4.28474 18.5951C6.58474 23.1326 11.3697 28.5676 19.9997 34.4876C28.6297 28.5676 33.4122 23.1326 35.7147 18.5951C38.1022 13.8801 37.8097 10.1901 36.4997 7.63258C33.7147 2.19508 25.9997 0.700076 21.7922 5.02508L19.9997 6.87008ZM19.9997 37.5001C-18.3328 12.1701 8.19724 -7.59993 19.5597 2.85758C19.7097 2.99508 19.8572 3.13758 19.9997 3.28508C20.1408 3.13771 20.2876 2.99593 20.4397 2.86008C31.7997 -7.60492 58.3322 12.1676 19.9997 37.5001Z" fill="#B0774E"/>
</g>
<defs>
<clipPath id="clip0_63_6181">
<rect width="40" height="37.8948" fill="white"/>
</clipPath>
</defs>
</svg>
