<svg width="70" height="70" viewBox="0 0 70 70" fill="none" xmlns="http://www.w3.org/2000/svg">
<g filter="url(#filter0_d_85_181)">
<circle cx="33" cy="31" r="29.5" stroke="#37757B" shape-rendering="crispEdges"/>
</g>
<path d="M52.3214 28.0615H12.6786C12.5973 28.062 12.5172 28.0804 12.4443 28.1153C12.3713 28.1502 12.3074 28.2007 12.2573 28.2631C12.2073 28.3255 12.1723 28.3981 12.1551 28.4756C12.1378 28.553 12.1388 28.6332 12.1579 28.7102L16.45 45.4423C16.5529 45.7943 16.8689 46.8651 18.0357 46.8651H46.9643C48.1354 46.8651 48.4482 45.7933 48.5554 45.4245L52.8411 28.7102C52.8608 28.6333 52.8622 28.5529 52.8453 28.4753C52.8284 28.3977 52.7936 28.3249 52.7435 28.2623C52.6934 28.1998 52.6294 28.1492 52.5562 28.1144C52.4831 28.0796 52.4028 28.0615 52.3214 28.0615ZM47.5214 45.155C47.3264 45.8205 47.125 45.8205 46.9643 45.8205H18.0357C17.8761 45.8205 17.6757 45.8205 17.4839 45.1717L13.3654 29.1062H51.6357L47.5214 45.155Z" fill="#37757B"/>
<path d="M29.8214 42.687C29.9635 42.687 30.0998 42.6319 30.2002 42.534C30.3007 42.436 30.3571 42.3032 30.3571 42.1646V32.7628C30.3571 32.6243 30.3007 32.4915 30.2002 32.3935C30.0998 32.2956 29.9635 32.2405 29.8214 32.2405C29.6793 32.2405 29.5431 32.2956 29.4426 32.3935C29.3422 32.4915 29.2857 32.6243 29.2857 32.7628V42.1646C29.2857 42.3032 29.3422 42.436 29.4426 42.534C29.5431 42.6319 29.6793 42.687 29.8214 42.687ZM22.3204 42.687C22.3958 42.6871 22.4704 42.6717 22.5393 42.6418C22.6082 42.6119 22.6698 42.5682 22.7202 42.5135C22.7706 42.4587 22.8085 42.3943 22.8316 42.3242C22.8546 42.2542 22.8622 42.1803 22.8539 42.1072L21.7825 32.7054C21.7669 32.5677 21.6958 32.4417 21.5849 32.3551C21.474 32.2685 21.3323 32.2284 21.1911 32.2437C21.0498 32.2589 20.9206 32.3282 20.8318 32.4364C20.743 32.5445 20.7019 32.6826 20.7175 32.8203L21.7889 42.2221C21.8034 42.3497 21.8656 42.4677 21.9636 42.5534C22.0617 42.6392 22.1887 42.6867 22.3204 42.687ZM36.25 42.687C36.3921 42.687 36.5283 42.6319 36.6288 42.534C36.7293 42.436 36.7857 42.3032 36.7857 42.1646V32.7628C36.7857 32.6243 36.7293 32.4915 36.6288 32.3935C36.5283 32.2956 36.3921 32.2405 36.25 32.2405C36.1079 32.2405 35.9717 32.2956 35.8712 32.3935C35.7707 32.4915 35.7143 32.6243 35.7143 32.7628V42.1646C35.7143 42.3032 35.7707 42.436 35.8712 42.534C35.9717 42.6319 36.1079 42.687 36.25 42.687ZM42.6186 42.6838L42.6796 42.687C42.8113 42.6867 42.9383 42.6392 43.0364 42.5534C43.1344 42.4677 43.1966 42.3497 43.2111 42.2221L44.2825 32.8203C44.2981 32.6826 44.257 32.5445 44.1682 32.4364C44.0794 32.3282 43.9502 32.2589 43.8089 32.2437C43.6677 32.2284 43.526 32.2685 43.4151 32.3551C43.3042 32.4417 43.2331 32.5677 43.2175 32.7054L42.1461 42.1072C42.1304 42.2447 42.1714 42.3827 42.26 42.4908C42.3486 42.5989 42.4775 42.6683 42.6186 42.6838ZM46.9643 25.9727C47.0669 25.9726 47.1674 25.9438 47.2537 25.8897C47.34 25.8356 47.4086 25.7585 47.4513 25.6675C47.4939 25.5765 47.5089 25.4754 47.4943 25.3764C47.4798 25.2773 47.4364 25.1844 47.3693 25.1087L37.1907 13.6177C37.096 13.52 36.9662 13.4618 36.8285 13.455C36.6908 13.4482 36.5557 13.4935 36.4514 13.5814C36.3471 13.6693 36.2815 13.793 36.2683 13.9268C36.2552 14.0606 36.2954 14.1942 36.3807 14.2998L46.5593 25.7909C46.6093 25.8479 46.6714 25.8937 46.7413 25.9251C46.8113 25.9565 46.8873 25.9727 46.9643 25.9727ZM29.0886 13.555C28.9786 13.4675 28.8375 13.4262 28.6962 13.4401C28.555 13.4541 28.4252 13.522 28.3354 13.6292L18.6925 25.1202C18.6448 25.1729 18.6084 25.2345 18.5857 25.3012C18.5629 25.3679 18.5542 25.4384 18.5601 25.5084C18.5659 25.5785 18.5862 25.6467 18.6198 25.7089C18.6533 25.7711 18.6993 25.8261 18.7552 25.8706C18.811 25.9151 18.8755 25.9481 18.9448 25.9677C19.014 25.9872 19.0866 25.993 19.1582 25.9846C19.2297 25.9762 19.2988 25.9537 19.3613 25.9187C19.4238 25.8836 19.4784 25.8366 19.5218 25.7805L29.1646 14.2894C29.2543 14.1821 29.2967 14.0445 29.2824 13.9068C29.2682 13.7692 29.1984 13.6426 29.0886 13.555ZM54.4643 23.8834H50.1786C50.0365 23.8834 49.9002 23.9384 49.7998 24.0364C49.6993 24.1343 49.6429 24.2672 49.6429 24.4057C49.6429 24.5442 49.6993 24.6771 49.7998 24.775C49.9002 24.873 50.0365 24.928 50.1786 24.928H54.4643C54.6064 24.928 54.7426 24.873 54.8431 24.775C54.9436 24.6771 55 24.5442 55 24.4057C55 24.2672 54.9436 24.1343 54.8431 24.0364C54.7426 23.9384 54.6064 23.8834 54.4643 23.8834ZM24.4643 24.928H41.6071C41.7492 24.928 41.8855 24.873 41.9859 24.775C42.0864 24.6771 42.1429 24.5442 42.1429 24.4057C42.1429 24.2672 42.0864 24.1343 41.9859 24.0364C41.8855 23.9384 41.7492 23.8834 41.6071 23.8834H24.4643C24.3222 23.8834 24.1859 23.9384 24.0855 24.0364C23.985 24.1343 23.9286 24.2672 23.9286 24.4057C23.9286 24.5442 23.985 24.6771 24.0855 24.775C24.1859 24.873 24.3222 24.928 24.4643 24.928ZM10.5357 24.928H15.8929C16.0349 24.928 16.1712 24.873 16.2717 24.775C16.3721 24.6771 16.4286 24.5442 16.4286 24.4057C16.4286 24.2672 16.3721 24.1343 16.2717 24.0364C16.1712 23.9384 16.0349 23.8834 15.8929 23.8834H10.5357C10.3936 23.8834 10.2574 23.9384 10.1569 24.0364C10.0564 24.1343 10 24.2672 10 24.4057C10 24.5442 10.0564 24.6771 10.1569 24.775C10.2574 24.873 10.3936 24.928 10.5357 24.928Z" fill="#37757B"/>
<defs>
<filter id="filter0_d_85_181" x="0" y="0" width="70" height="70" filterUnits="userSpaceOnUse" color-interpolation-filters="sRGB">
<feFlood flood-opacity="0" result="BackgroundImageFix"/>
<feColorMatrix in="SourceAlpha" type="matrix" values="0 0 0 0 0 0 0 0 0 0 0 0 0 0 0 0 0 0 127 0" result="hardAlpha"/>
<feOffset dx="2" dy="4"/>
<feGaussianBlur stdDeviation="2.5"/>
<feComposite in2="hardAlpha" operator="out"/>
<feColorMatrix type="matrix" values="0 0 0 0 0 0 0 0 0 0 0 0 0 0 0 0 0 0 0.15 0"/>
<feBlend mode="normal" in2="BackgroundImageFix" result="effect1_dropShadow_85_181"/>
<feBlend mode="normal" in="SourceGraphic" in2="effect1_dropShadow_85_181" result="shape"/>
</filter>
</defs>
</svg>
