<svg width="58" height="58" viewBox="0 0 58 58" fill="none" xmlns="http://www.w3.org/2000/svg">
<g filter="url(#filter0_d_30_9255)">
<circle cx="27" cy="25" r="23.5" stroke="#37757B" shape-rendering="crispEdges"/>
</g>
<path d="M41.0953 22.9992H12.9048C12.847 22.9996 12.79 23.0147 12.7382 23.0433C12.6863 23.072 12.6409 23.1134 12.6052 23.1646C12.5696 23.2158 12.5448 23.2754 12.5325 23.3389C12.5203 23.4025 12.5209 23.4683 12.5345 23.5315L15.5867 37.2604C15.6598 37.5492 15.8846 38.4278 16.7143 38.4278H37.2857C38.1185 38.4278 38.341 37.5484 38.4172 37.2458L41.4648 23.5315C41.4788 23.4683 41.4798 23.4024 41.4678 23.3387C41.4558 23.275 41.431 23.2153 41.3954 23.164C41.3598 23.1127 41.3142 23.0712 41.2622 23.0426C41.2102 23.0141 41.1531 22.9992 41.0953 22.9992ZM37.6819 37.0246C37.5433 37.5706 37.4 37.5706 37.2857 37.5706H16.7143C16.6008 37.5706 16.4583 37.5706 16.3219 37.0384L13.3932 23.8563H40.6076L37.6819 37.0246Z" fill="#37757B"/>
<path d="M25.0952 34.9996C25.1963 34.9996 25.2932 34.9544 25.3646 34.874C25.4361 34.7937 25.4762 34.6846 25.4762 34.571V26.8567C25.4762 26.743 25.4361 26.634 25.3646 26.5536C25.2932 26.4733 25.1963 26.4281 25.0952 26.4281C24.9942 26.4281 24.8973 26.4733 24.8259 26.5536C24.7544 26.634 24.7143 26.743 24.7143 26.8567V34.571C24.7143 34.6846 24.7544 34.7937 24.8259 34.874C24.8973 34.9544 24.9942 34.9996 25.0952 34.9996ZM19.7611 34.9996C19.8148 34.9997 19.8678 34.9871 19.9168 34.9625C19.9658 34.938 20.0097 34.9021 20.0455 34.8572C20.0813 34.8123 20.1083 34.7594 20.1247 34.7019C20.141 34.6445 20.1465 34.5838 20.1406 34.5238L19.3787 26.8096C19.3676 26.6966 19.317 26.5932 19.2381 26.5221C19.1593 26.4511 19.0585 26.4182 18.9581 26.4307C18.8577 26.4432 18.7658 26.5001 18.7026 26.5888C18.6395 26.6775 18.6102 26.7909 18.6213 26.9038L19.3832 34.6181C19.3935 34.7228 19.4378 34.8196 19.5075 34.89C19.5772 34.9603 19.6675 34.9993 19.7611 34.9996ZM29.6667 34.9996C29.7677 34.9996 29.8646 34.9544 29.936 34.874C30.0075 34.7937 30.0476 34.6846 30.0476 34.571V26.8567C30.0476 26.743 30.0075 26.634 29.936 26.5536C29.8646 26.4733 29.7677 26.4281 29.6667 26.4281C29.5656 26.4281 29.4687 26.4733 29.3973 26.5536C29.3258 26.634 29.2857 26.743 29.2857 26.8567V34.571C29.2857 34.6846 29.3258 34.7937 29.3973 34.874C29.4687 34.9544 29.5656 34.9996 29.6667 34.9996ZM34.1954 34.997L34.2389 34.9996C34.3325 34.9993 34.4228 34.9603 34.4925 34.89C34.5622 34.8196 34.6065 34.7228 34.6168 34.6181L35.3787 26.9038C35.3898 26.7909 35.3605 26.6775 35.2974 26.5888C35.2342 26.5001 35.1423 26.4432 35.0419 26.4307C34.9415 26.4182 34.8407 26.4511 34.7619 26.5221C34.683 26.5932 34.6324 26.6966 34.6213 26.8096L33.8594 34.5238C33.8483 34.6367 33.8774 34.7499 33.9404 34.8386C34.0034 34.9273 34.0951 34.9843 34.1954 34.997ZM37.2857 21.2853C37.3587 21.2852 37.4301 21.2616 37.4915 21.2172C37.5529 21.1728 37.6017 21.1095 37.632 21.0349C37.6623 20.9602 37.673 20.8773 37.6626 20.796C37.6523 20.7147 37.6214 20.6385 37.5737 20.5764L30.3356 11.1478C30.2682 11.0677 30.176 11.0199 30.0781 11.0144C29.9801 11.0088 29.8841 11.046 29.8099 11.1181C29.7357 11.1902 29.6891 11.2917 29.6797 11.4015C29.6703 11.5113 29.699 11.6209 29.7596 11.7075L36.9977 21.1361C37.0333 21.1829 37.0775 21.2205 37.1272 21.2462C37.1769 21.272 37.231 21.2853 37.2857 21.2853ZM24.5741 11.0964C24.4959 11.0247 24.3955 10.9908 24.2951 11.0022C24.1947 11.0136 24.1024 11.0694 24.0385 11.1573L17.1813 20.5858C17.1474 20.6291 17.1216 20.6796 17.1054 20.7343C17.0892 20.789 17.083 20.8469 17.0872 20.9043C17.0913 20.9618 17.1058 21.0178 17.1296 21.0688C17.1534 21.1199 17.1862 21.165 17.2259 21.2015C17.2656 21.238 17.3115 21.2651 17.3607 21.2812C17.41 21.2972 17.4616 21.3019 17.5125 21.295C17.5634 21.2881 17.6125 21.2697 17.6569 21.241C17.7014 21.2122 17.7402 21.1736 17.771 21.1276L24.6282 11.699C24.692 11.611 24.7221 11.4981 24.712 11.3851C24.7018 11.2721 24.6522 11.1683 24.5741 11.0964ZM42.619 19.571H39.5714C39.4704 19.571 39.3735 19.6161 39.3021 19.6965C39.2306 19.7769 39.1905 19.8859 39.1905 19.9996C39.1905 20.1132 39.2306 20.2222 39.3021 20.3026C39.3735 20.383 39.4704 20.4281 39.5714 20.4281H42.619C42.7201 20.4281 42.817 20.383 42.8884 20.3026C42.9599 20.2222 43 20.1132 43 19.9996C43 19.8859 42.9599 19.7769 42.8884 19.6965C42.817 19.6161 42.7201 19.571 42.619 19.571ZM21.2857 20.4281H33.4762C33.5772 20.4281 33.6741 20.383 33.7456 20.3026C33.817 20.2222 33.8571 20.1132 33.8571 19.9996C33.8571 19.8859 33.817 19.7769 33.7456 19.6965C33.6741 19.6161 33.5772 19.571 33.4762 19.571H21.2857C21.1847 19.571 21.0878 19.6161 21.0163 19.6965C20.9449 19.7769 20.9048 19.8859 20.9048 19.9996C20.9048 20.1132 20.9449 20.2222 21.0163 20.3026C21.0878 20.383 21.1847 20.4281 21.2857 20.4281ZM11.381 20.4281H15.1905C15.2915 20.4281 15.3884 20.383 15.4599 20.3026C15.5313 20.2222 15.5714 20.1132 15.5714 19.9996C15.5714 19.8859 15.5313 19.7769 15.4599 19.6965C15.3884 19.6161 15.2915 19.571 15.1905 19.571H11.381C11.2799 19.571 11.183 19.6161 11.1116 19.6965C11.0401 19.7769 11 19.8859 11 19.9996C11 20.1132 11.0401 20.2222 11.1116 20.3026C11.183 20.383 11.2799 20.4281 11.381 20.4281Z" fill="#37757B"/>
<defs>
<filter id="filter0_d_30_9255" x="0" y="0" width="58" height="58" filterUnits="userSpaceOnUse" color-interpolation-filters="sRGB">
<feFlood flood-opacity="0" result="BackgroundImageFix"/>
<feColorMatrix in="SourceAlpha" type="matrix" values="0 0 0 0 0 0 0 0 0 0 0 0 0 0 0 0 0 0 127 0" result="hardAlpha"/>
<feOffset dx="2" dy="4"/>
<feGaussianBlur stdDeviation="2.5"/>
<feComposite in2="hardAlpha" operator="out"/>
<feColorMatrix type="matrix" values="0 0 0 0 0 0 0 0 0 0 0 0 0 0 0 0 0 0 0.15 0"/>
<feBlend mode="normal" in2="BackgroundImageFix" result="effect1_dropShadow_30_9255"/>
<feBlend mode="normal" in="SourceGraphic" in2="effect1_dropShadow_30_9255" result="shape"/>
</filter>
</defs>
</svg>
