<svg width="70" height="70" viewBox="0 0 70 70" fill="none" xmlns="http://www.w3.org/2000/svg">
<g clip-path="url(#clip0_85_177)">
<path d="M32.9998 22.5266L31.2969 20.7762C27.2998 16.6674 19.9705 18.0853 17.3248 23.2509C16.0826 25.6806 15.8024 29.1884 18.0705 33.6653C20.2555 37.9759 24.8013 43.1392 32.9998 48.7632C41.1982 43.1392 45.7416 37.9759 47.929 33.6653C50.1971 29.1861 49.9193 25.6806 48.6748 23.2509C46.029 18.0853 38.6998 16.6651 34.7026 20.7738L32.9998 22.5266ZM32.9998 51.6251C-3.41612 27.5616 21.7874 8.78005 32.5818 18.7147C32.7243 18.8453 32.8644 18.9807 32.9998 19.1208C33.1338 18.9808 33.2732 18.8461 33.4177 18.7171C44.2098 8.7753 69.4156 27.5592 32.9998 51.6251Z" fill="#37757B"/>
</g>
<g filter="url(#filter0_d_85_177)">
<circle cx="33" cy="31" r="29.5" stroke="#37757B" shape-rendering="crispEdges"/>
</g>
<defs>
<filter id="filter0_d_85_177" x="0" y="0" width="70" height="70" filterUnits="userSpaceOnUse" color-interpolation-filters="sRGB">
<feFlood flood-opacity="0" result="BackgroundImageFix"/>
<feColorMatrix in="SourceAlpha" type="matrix" values="0 0 0 0 0 0 0 0 0 0 0 0 0 0 0 0 0 0 127 0" result="hardAlpha"/>
<feOffset dx="2" dy="4"/>
<feGaussianBlur stdDeviation="2.5"/>
<feComposite in2="hardAlpha" operator="out"/>
<feColorMatrix type="matrix" values="0 0 0 0 0 0 0 0 0 0 0 0 0 0 0 0 0 0 0.15 0"/>
<feBlend mode="normal" in2="BackgroundImageFix" result="effect1_dropShadow_85_177"/>
<feBlend mode="normal" in="SourceGraphic" in2="effect1_dropShadow_85_177" result="shape"/>
</filter>
<clipPath id="clip0_85_177">
<rect width="38" height="36" fill="white" transform="translate(14 16)"/>
</clipPath>
</defs>
</svg>
