<svg width="58" height="58" viewBox="0 0 58 58" fill="none" xmlns="http://www.w3.org/2000/svg">
<g clip-path="url(#clip0_59_16261)">
<path d="M26.9999 16.8014L25.5659 15.2455C22.1999 11.5933 16.0279 12.8536 13.7999 17.4453C12.7539 19.6049 12.5179 22.723 14.4279 26.7025C16.2679 30.5341 20.0959 35.1237 26.9999 40.1228C33.9039 35.1237 37.7299 30.5341 39.5719 26.7025C41.4819 22.7209 41.2479 19.6049 40.1999 17.4453C37.9719 12.8536 31.7999 11.5912 28.4339 15.2434L26.9999 16.8014ZM26.9999 42.6667C-3.66609 21.2769 17.5579 4.58227 26.6479 13.413C26.7679 13.5291 26.8859 13.6495 26.9999 13.774C27.1128 13.6496 27.2302 13.5299 27.3519 13.4151C36.4399 4.57805 57.6659 21.2748 26.9999 42.6667Z" fill="#37757B"/>
</g>
<g filter="url(#filter0_d_59_16261)">
<circle cx="27" cy="25" r="23.5" stroke="#37757B" shape-rendering="crispEdges"/>
</g>
<defs>
<filter id="filter0_d_59_16261" x="0" y="0" width="58" height="58" filterUnits="userSpaceOnUse" color-interpolation-filters="sRGB">
<feFlood flood-opacity="0" result="BackgroundImageFix"/>
<feColorMatrix in="SourceAlpha" type="matrix" values="0 0 0 0 0 0 0 0 0 0 0 0 0 0 0 0 0 0 127 0" result="hardAlpha"/>
<feOffset dx="2" dy="4"/>
<feGaussianBlur stdDeviation="2.5"/>
<feComposite in2="hardAlpha" operator="out"/>
<feColorMatrix type="matrix" values="0 0 0 0 0 0 0 0 0 0 0 0 0 0 0 0 0 0 0.15 0"/>
<feBlend mode="normal" in2="BackgroundImageFix" result="effect1_dropShadow_59_16261"/>
<feBlend mode="normal" in="SourceGraphic" in2="effect1_dropShadow_59_16261" result="shape"/>
</filter>
<clipPath id="clip0_59_16261">
<rect width="32" height="32" fill="white" transform="translate(11 11)"/>
</clipPath>
</defs>
</svg>
