<svg width="33" height="34" viewBox="0 0 33 34" fill="none" xmlns="http://www.w3.org/2000/svg">
<g clip-path="url(#clip0_59_19412)">
<path d="M32.9835 17.3181C32.9835 15.9251 32.8713 14.9086 32.6283 13.8545H16.8287V20.1416H26.1027C25.9158 21.7041 24.9061 24.0571 22.6624 25.6382L22.6309 25.8487L27.6264 29.7448L27.9725 29.7796C31.1511 26.8242 32.9835 22.4758 32.9835 17.3181Z" fill="#4285F4"/>
<path d="M16.8287 33.8832C21.3722 33.8832 25.1865 32.3772 27.9725 29.7796L22.6623 25.6382C21.2413 26.6359 19.3341 27.3324 16.8287 27.3324C12.3787 27.3324 8.60174 24.3771 7.25538 20.2923L7.05803 20.3092L1.8636 24.3563L1.79567 24.5464C4.56291 30.0807 10.247 33.8832 16.8287 33.8832Z" fill="#34A853"/>
<path d="M7.25538 20.2923C6.90013 19.2382 6.69453 18.1086 6.69453 16.9416C6.69453 15.7744 6.90013 14.645 7.23669 13.5909L7.22728 13.3664L1.96775 9.25423L1.79567 9.33663C0.65516 11.6332 0.000732422 14.2121 0.000732422 16.9416C0.000732422 19.6711 0.65516 22.2499 1.79567 24.5464L7.25538 20.2923Z" fill="#FBBC05"/>
<path d="M16.8287 6.55071C19.9886 6.55071 22.1201 7.92485 23.3355 9.0732L28.0847 4.40482C25.1679 1.67534 21.3722 0 16.8287 0C10.247 0 4.56291 3.80242 1.79567 9.33663L7.23669 13.5909C8.60175 9.50611 12.3787 6.55071 16.8287 6.55071Z" fill="#EB4335"/>
</g>
<defs>
<clipPath id="clip0_59_19412">
<rect width="33" height="34" fill="white"/>
</clipPath>
</defs>
</svg>
