<svg width="48" height="48" viewBox="0 0 48 48" fill="none" xmlns="http://www.w3.org/2000/svg">
<path d="M0 10C0 4.47715 4.47715 0 10 0H38C43.5228 0 48 4.47715 48 10V38C48 43.5228 43.5228 48 38 48H10C4.47715 48 0 43.5228 0 38V10Z" fill="url(#paint0_angular_32_12622)"/>
<path fill-rule="evenodd" clip-rule="evenodd" d="M24.5013 8C20.2917 8 19.7635 8.01841 18.1101 8.09365C16.46 8.16921 15.3337 8.43045 14.3481 8.81375C13.3287 9.20965 12.4639 9.73923 11.6024 10.6011C10.7402 11.4626 10.2106 12.3274 9.81343 13.3465C9.42916 14.3324 9.16759 15.4591 9.09332 17.1085C9.01937 18.7618 9 19.2905 9 23.5C9 27.7095 9.01873 28.2362 9.09365 29.8896C9.16953 31.5397 9.43077 32.666 9.81375 33.6515C10.21 34.671 10.7396 35.5358 11.6014 36.3973C12.4626 37.2595 13.3274 37.7904 14.3462 38.1862C15.3324 38.5695 16.4591 38.8308 18.1088 38.9064C19.7622 38.9816 20.2901 39 24.4994 39C28.7092 39 29.2359 38.9816 30.8892 38.9064C32.5393 38.8308 33.667 38.5695 34.6531 38.1862C35.6723 37.7904 36.5357 37.2595 37.397 36.3973C38.2592 35.5358 38.7887 34.671 39.1859 33.6519C39.567 32.666 39.8285 31.5393 39.906 29.8899C39.9803 28.2365 39.9997 27.7095 39.9997 23.5C39.9997 19.2905 39.9803 18.7622 39.906 17.1088C39.8285 15.4587 39.567 14.3324 39.1859 13.3469C38.7887 12.3274 38.2592 11.4626 37.397 10.6011C36.5348 9.73891 35.6726 9.20932 34.6522 8.81375C33.664 8.43045 32.5371 8.16921 30.887 8.09365C29.2336 8.01841 28.7073 8 24.4964 8H24.5013ZM23.1109 10.7932C23.3809 10.7928 23.6714 10.7929 23.9848 10.793L24.5014 10.7932C28.6399 10.7932 29.1304 10.8081 30.7647 10.8823C32.276 10.9514 33.0962 11.2039 33.6425 11.4161C34.3659 11.697 34.8816 12.0329 35.4238 12.5754C35.9663 13.1179 36.3021 13.6345 36.5837 14.3579C36.7958 14.9036 37.0487 15.7238 37.1174 17.2351C37.1917 18.869 37.2079 19.3599 37.2079 23.4964C37.2079 27.633 37.1917 28.1238 37.1174 29.7578C37.0483 31.269 36.7958 32.0892 36.5837 32.635C36.3027 33.3583 35.9663 33.8733 35.4238 34.4155C34.8813 34.958 34.3662 35.2939 33.6425 35.5748C33.0968 35.7879 32.276 36.0398 30.7647 36.1089C29.1308 36.1832 28.6399 36.1993 24.5014 36.1993C20.3626 36.1993 19.8721 36.1832 18.2381 36.1089C16.7269 36.0391 15.9067 35.7866 15.36 35.5745C14.6366 35.2935 14.12 34.9577 13.5775 34.4152C13.035 33.8727 12.6991 33.3573 12.4176 32.6337C12.2054 32.0879 11.9526 31.2677 11.8838 29.7565C11.8095 28.1225 11.7946 27.6317 11.7946 23.4925C11.7946 19.3534 11.8095 18.8651 11.8838 17.2312C11.9529 15.7199 12.2054 14.8997 12.4176 14.3534C12.6985 13.63 13.035 13.1134 13.5775 12.5709C14.12 12.0284 14.6366 11.6925 15.36 11.4109C15.9063 11.1978 16.7269 10.9459 18.2381 10.8765C19.668 10.8119 20.2221 10.7926 23.1109 10.7893V10.7932ZM30.9152 15.2261C30.9152 14.1989 31.7483 13.3667 32.7752 13.3667C33.8021 13.3667 34.6352 14.1992 34.6352 15.2261C34.6352 16.253 33.8021 17.0861 32.7752 17.0861C31.7483 17.0861 30.9152 16.253 30.9152 15.2261ZM24.5013 15.5402C20.1054 15.5402 16.5414 19.1042 16.5414 23.5001C16.5414 27.896 20.1054 31.4584 24.5013 31.4584C28.8971 31.4584 32.4599 27.896 32.4599 23.5001C32.4599 19.1042 28.8971 15.5402 24.5013 15.5402ZM29.6679 23.5C29.6679 20.6464 27.3545 18.3334 24.5012 18.3334C21.6476 18.3334 19.3345 20.6464 19.3345 23.5C19.3345 26.3533 21.6476 28.6667 24.5012 28.6667C27.3545 28.6667 29.6679 26.3533 29.6679 23.5Z" fill="white"/>
<defs>
<radialGradient id="paint0_angular_32_12622" cx="0" cy="0" r="1" gradientUnits="userSpaceOnUse" gradientTransform="translate(20.5 19.5) rotate(171.573) scale(13.6473)">
<stop offset="0.0818243" stop-color="#2400FF" stop-opacity="0.8"/>
<stop offset="0.478035" stop-color="#FF00B8" stop-opacity="0.8"/>
<stop offset="0.679788" stop-color="#FFD43C" stop-opacity="0.8"/>
<stop offset="0.892051" stop-color="#E4FF3C" stop-opacity="0.8"/>
</radialGradient>
</defs>
</svg>
