<svg width="230" height="132" viewBox="0 0 230 132" fill="none" xmlns="http://www.w3.org/2000/svg">
<path d="M13.144 51.9393H2.012V50.0073H26.484V51.9393H15.352V82.8973H13.144V51.9393ZM30.8159 82.8973V50.0073H46.0879V51.9393H33.0239V64.0373H44.8459V65.9233H33.0239V80.9653H46.5939V82.8973H30.8159ZM54.4211 71.4893L49.6831 82.8973H47.3371L61.1831 49.7773H62.4711L76.3631 82.8973H73.8791L69.1411 71.4893H54.4211ZM61.6891 53.4573C61.6584 53.4879 61.5971 53.6719 61.5051 54.0093C61.0758 55.3279 60.6618 56.4473 60.2631 57.3673L55.2031 69.6033H68.3591L63.2991 57.4133C62.2258 55.0826 61.6891 53.7639 61.6891 53.4573ZM105.209 82.8973V66.4293H82.623V82.8973H80.415V50.0073H82.623V64.4513H105.209V50.0073H107.417V82.8973H105.209ZM119.404 78.5273C116.368 75.2459 114.85 71.2133 114.85 66.4293C114.85 61.6453 116.368 57.6279 119.404 54.3773C122.471 51.0959 126.335 49.4553 130.996 49.4553C135.657 49.4553 139.521 51.0959 142.588 54.3773C145.655 57.6279 147.188 61.6453 147.188 66.4293C147.188 71.2133 145.655 75.2459 142.588 78.5273C139.521 81.8086 135.657 83.4493 130.996 83.4493C126.335 83.4493 122.471 81.8086 119.404 78.5273ZM121.06 55.8033C118.515 58.6553 117.242 62.1973 117.242 66.4293C117.242 70.6613 118.515 74.2186 121.06 77.1013C123.636 79.9839 126.948 81.4253 130.996 81.4253C135.075 81.4253 138.387 79.9839 140.932 77.1013C143.508 74.2186 144.796 70.6613 144.796 66.4293C144.796 62.1973 143.508 58.6553 140.932 55.8033C138.387 52.9206 135.075 51.4793 130.996 51.4793C126.917 51.4793 123.605 52.9206 121.06 55.8033ZM176.803 79.7233C174.687 82.2073 171.467 83.4493 167.143 83.4493C162.819 83.4493 159.584 82.1919 157.437 79.6773C155.321 77.1626 154.263 73.7279 154.263 69.3733V50.0073H156.471V69.3733C156.471 77.4693 160.013 81.5173 167.097 81.5173C174.212 81.5173 177.769 77.4693 177.769 69.3733V50.0073H179.977V69.3733C179.977 73.7586 178.919 77.2086 176.803 79.7233ZM203.191 52.9053C200.952 51.9546 198.729 51.4793 196.521 51.4793C192.044 51.4793 189.805 53.1353 189.805 56.4473C189.805 57.8886 190.311 59.2379 191.323 60.4953C192.335 61.7219 193.562 62.8259 195.003 63.8073C196.444 64.7579 197.886 65.7393 199.327 66.7513C200.768 67.7633 201.995 68.9746 203.007 70.3853C204.019 71.7959 204.525 73.3293 204.525 74.9853C204.525 77.7759 203.59 79.8919 201.719 81.3333C199.848 82.7439 197.257 83.4493 193.945 83.4493C190.664 83.4493 187.858 82.6059 185.527 80.9193L186.631 79.2633C188.839 80.7046 191.262 81.4253 193.899 81.4253C196.536 81.4253 198.56 80.9039 199.971 79.8613C201.382 78.7879 202.087 77.2546 202.087 75.2613C202.087 73.8813 201.581 72.5779 200.569 71.3513C199.557 70.0939 198.33 68.9746 196.889 67.9933C195.448 66.9813 194.006 65.9539 192.565 64.9113C191.124 63.8686 189.897 62.6266 188.885 61.1853C187.873 59.7439 187.367 58.1953 187.367 56.5393C187.367 54.3619 188.164 52.6446 189.759 51.3873C191.384 50.0993 193.562 49.4553 196.291 49.4553C199.051 49.4553 201.612 50.0073 203.973 51.1113L203.191 52.9053ZM211.373 82.8973V50.0073H226.645V51.9393H213.581V64.0373H225.403V65.9233H213.581V80.9653H227.151V82.8973H211.373Z" fill="#37757B"/>
<path d="M12.144 51.9393H1.012V50.0073H25.484V51.9393H14.352V82.8973H12.144V51.9393ZM29.8159 82.8973V50.0073H45.0879V51.9393H32.0239V64.0373H43.8459V65.9233H32.0239V80.9653H45.5939V82.8973H29.8159ZM53.4211 71.4893L48.6831 82.8973H46.3371L60.1831 49.7773H61.4711L75.3631 82.8973H72.8791L68.1411 71.4893H53.4211ZM60.6891 53.4573C60.6584 53.4879 60.5971 53.6719 60.5051 54.0093C60.0758 55.3279 59.6618 56.4473 59.2631 57.3673L54.2031 69.6033H67.3591L62.2991 57.4133C61.2258 55.0826 60.6891 53.7639 60.6891 53.4573ZM104.209 82.8973V66.4293H81.623V82.8973H79.415V50.0073H81.623V64.4513H104.209V50.0073H106.417V82.8973H104.209ZM118.404 78.5273C115.368 75.2459 113.85 71.2133 113.85 66.4293C113.85 61.6453 115.368 57.6279 118.404 54.3773C121.471 51.0959 125.335 49.4553 129.996 49.4553C134.657 49.4553 138.521 51.0959 141.588 54.3773C144.655 57.6279 146.188 61.6453 146.188 66.4293C146.188 71.2133 144.655 75.2459 141.588 78.5273C138.521 81.8086 134.657 83.4493 129.996 83.4493C125.335 83.4493 121.471 81.8086 118.404 78.5273ZM120.06 55.8033C117.515 58.6553 116.242 62.1973 116.242 66.4293C116.242 70.6613 117.515 74.2186 120.06 77.1013C122.636 79.9839 125.948 81.4253 129.996 81.4253C134.075 81.4253 137.387 79.9839 139.932 77.1013C142.508 74.2186 143.796 70.6613 143.796 66.4293C143.796 62.1973 142.508 58.6553 139.932 55.8033C137.387 52.9206 134.075 51.4793 129.996 51.4793C125.917 51.4793 122.605 52.9206 120.06 55.8033ZM175.803 79.7233C173.687 82.2073 170.467 83.4493 166.143 83.4493C161.819 83.4493 158.584 82.1919 156.437 79.6773C154.321 77.1626 153.263 73.7279 153.263 69.3733V50.0073H155.471V69.3733C155.471 77.4693 159.013 81.5173 166.097 81.5173C173.212 81.5173 176.769 77.4693 176.769 69.3733V50.0073H178.977V69.3733C178.977 73.7586 177.919 77.2086 175.803 79.7233ZM202.191 52.9053C199.952 51.9546 197.729 51.4793 195.521 51.4793C191.044 51.4793 188.805 53.1353 188.805 56.4473C188.805 57.8886 189.311 59.2379 190.323 60.4953C191.335 61.7219 192.562 62.8259 194.003 63.8073C195.444 64.7579 196.886 65.7393 198.327 66.7513C199.768 67.7633 200.995 68.9746 202.007 70.3853C203.019 71.7959 203.525 73.3293 203.525 74.9853C203.525 77.7759 202.59 79.8919 200.719 81.3333C198.848 82.7439 196.257 83.4493 192.945 83.4493C189.664 83.4493 186.858 82.6059 184.527 80.9193L185.631 79.2633C187.839 80.7046 190.262 81.4253 192.899 81.4253C195.536 81.4253 197.56 80.9039 198.971 79.8613C200.382 78.7879 201.087 77.2546 201.087 75.2613C201.087 73.8813 200.581 72.5779 199.569 71.3513C198.557 70.0939 197.33 68.9746 195.889 67.9933C194.448 66.9813 193.006 65.9539 191.565 64.9113C190.124 63.8686 188.897 62.6266 187.885 61.1853C186.873 59.7439 186.367 58.1953 186.367 56.5393C186.367 54.3619 187.164 52.6446 188.759 51.3873C190.384 50.0993 192.562 49.4553 195.291 49.4553C198.051 49.4553 200.612 50.0073 202.973 51.1113L202.191 52.9053ZM210.373 82.8973V50.0073H225.645V51.9393H212.581V64.0373H224.403V65.9233H212.581V80.9653H226.151V82.8973H210.373Z" fill="#37757B"/>
<path d="M114 1.89728H107.271C99.207 1.89728 91.2601 3.8239 84.0917 7.5167C80.3782 9.42972 76.9158 11.7951 73.7835 14.5589L71.025 16.9929C64.7143 22.5611 59.2815 29.1517 55 36.3973C56.9737 33.0572 63.3636 30.7155 66.8336 28.9805L67 28.8973L71 24.3973C72.85 21.8462 74.9327 19.4477 77.4804 17.5929C78.9332 16.5351 80.4419 15.5552 82 14.6573C82.6878 14.261 83.3852 13.8807 84.0917 13.5167C91.2601 9.8239 99.207 7.89728 107.271 7.89728H114H121.544C129.088 7.89728 134.679 10.2955 141.5 13.5167C146.56 15.9059 149.479 17.5062 153.5 21.3973C156.807 24.0428 159.476 27.5482 163 29.8973L168 32.3973L173.5 36.3973L171.324 32.9771C168.119 27.9414 164.333 23.3002 160.044 19.1493L157.072 16.2736C153.051 12.3825 148.419 9.17832 143.359 6.7891C136.538 3.56788 129.088 1.89728 121.544 1.89728H114Z" stroke="#37757B"/>
<path d="M82.3322 14.139C82.102 12.4392 82.8488 10.5747 84.4299 8.90173C86.011 7.22877 88.3155 5.86466 90.903 5.07006C93.4906 4.27546 96.1797 4.10608 98.4567 4.5943C100.734 5.08251 102.439 6.19409 103.246 7.71662L101.369 8.44163C100.709 7.19879 99.3176 6.29142 97.459 5.8929C95.6003 5.49437 93.4052 5.63263 91.293 6.28125C89.1808 6.92988 87.2997 8.0434 86.0091 9.40903C84.7184 10.7747 84.1088 12.2966 84.2967 13.6842L82.3322 14.139Z" fill="#37757B"/>
<path d="M146.838 15.8892C146.999 13.6865 146.261 11.3651 144.749 9.31785C143.238 7.27056 141.045 5.62295 138.541 4.65367C136.038 3.68439 133.378 3.45293 131.011 3.99844C128.645 4.54395 126.716 5.83295 125.552 7.64743L127.399 8.73175C128.349 7.25058 129.924 6.19837 131.856 5.75307C133.788 5.30777 135.959 5.49671 138.002 6.28793C140.046 7.07916 141.836 8.42411 143.07 10.0953C144.304 11.7665 144.906 13.6614 144.775 15.4595L146.838 15.8892Z" fill="#37757B"/>
<circle cx="76.5" cy="26.3973" r="2.5" fill="#37757B"/>
<circle cx="114.5" cy="11.3973" r="2.5" fill="#37757B"/>
<circle cx="151.5" cy="26.3973" r="2.5" fill="#37757B"/>
<path d="M114.5 129.397L121.229 129.397C129.293 129.397 137.24 127.471 144.408 123.778C148.122 121.865 151.584 119.499 154.717 116.736L157.475 114.302C163.786 108.733 169.219 102.143 173.5 94.8973C171.526 98.2374 165.136 100.579 161.666 102.314L161.5 102.397L157.5 106.897C155.65 109.448 153.567 111.847 151.02 113.702C149.567 114.759 148.058 115.739 146.5 116.637C145.812 117.034 145.115 117.414 144.408 117.778C137.24 121.471 129.293 123.397 121.229 123.397L114.5 123.397L106.956 123.397C99.4124 123.397 93.8214 120.999 87 117.778C81.9405 115.389 79.0208 113.788 75 109.897C71.6932 107.252 69.0236 103.746 65.5 101.397L60.5 98.8973L55 94.8973L57.1765 98.3175C60.381 103.353 64.167 107.994 68.4562 112.145L71.4279 115.021C75.4486 118.912 80.0813 122.116 85.1409 124.505C91.9622 127.727 99.4124 129.397 106.956 129.397L114.5 129.397Z" stroke="#37757B"/>
<path d="M146.168 117.156C146.398 118.855 145.651 120.72 144.07 122.393C142.489 124.066 140.185 125.43 137.597 126.224C135.009 127.019 132.32 127.188 130.043 126.7C127.766 126.212 126.061 125.1 125.254 123.578L127.131 122.853C127.791 124.096 129.182 125.003 131.041 125.402C132.9 125.8 135.095 125.662 137.207 125.013C139.319 124.365 141.2 123.251 142.491 121.886C143.782 120.52 144.391 118.998 144.203 117.61L146.168 117.156Z" fill="#37757B"/>
<path d="M81.6624 115.405C81.5013 117.608 82.239 119.929 83.7507 121.977C85.2624 124.024 87.4553 125.672 89.9586 126.641C92.4618 127.61 95.1218 127.842 97.4886 127.296C99.8555 126.751 101.784 125.462 102.948 123.647L101.101 122.563C100.151 124.044 98.5764 125.096 96.6444 125.541C94.7123 125.987 92.541 125.798 90.4976 125.007C88.4541 124.215 86.6641 122.87 85.4301 121.199C84.1961 119.528 83.5939 117.633 83.7254 115.835L81.6624 115.405Z" fill="#37757B"/>
<circle cx="152" cy="104.897" r="2.5" transform="rotate(-180 152 104.897)" fill="#37757B"/>
<circle cx="114" cy="119.897" r="2.5" transform="rotate(-180 114 119.897)" fill="#37757B"/>
<circle cx="77" cy="104.897" r="2.5" transform="rotate(-180 77 104.897)" fill="#37757B"/>
</svg>
