<svg width="9" height="29" viewBox="0 0 9 29" fill="none" xmlns="http://www.w3.org/2000/svg">
<path d="M0.833333 26C0.833333 27.4728 2.02724 28.6667 3.5 28.6667C4.97276 28.6667 6.16667 27.4728 6.16667 26C6.16667 24.5272 4.97276 23.3333 3.5 23.3333C2.02724 23.3333 0.833333 24.5272 0.833333 26ZM0.833333 3.5C0.833333 4.97276 2.02724 6.16667 3.5 6.16667C4.97276 6.16667 6.16667 4.97276 6.16667 3.5C6.16667 2.02724 4.97276 0.833333 3.5 0.833333C2.02724 0.833333 0.833333 2.02724 0.833333 3.5ZM6.84633 8.39111L3.93501 3.25349L3.06499 3.74651L5.9763 8.88412L6.84633 8.39111ZM3.83081 26.3749C8.96191 21.8475 10.22 14.3446 6.84633 8.39111L5.9763 8.88412C9.11681 14.4262 7.94568 21.4105 3.16919 25.6251L3.83081 26.3749Z" fill="#7B5337"/>
</svg>
